<?xml version="1.0" encoding="UTF-8" standalone="no"?>
<!-- Created with Inkscape (http://www.inkscape.org/) -->

<svg
   width="290mm"
   height="60mm"
   viewBox="0 0 29.000001 6.0000001"
   version="1.1"
   id="svg5"
   xml:space="preserve"
   inkscape:version="1.3.2 (091e20e, 2023-11-25, custom)"
   sodipodi:docname="deskflow-logo-light.svg"
   inkscape:export-filename="deskflow-logo-light-1000.png"
   inkscape:export-xdpi="87.586205"
   inkscape:export-ydpi="87.586205"
   xmlns:inkscape="http://www.inkscape.org/namespaces/inkscape"
   xmlns:sodipodi="http://sodipodi.sourceforge.net/DTD/sodipodi-0.dtd"
   xmlns="http://www.w3.org/2000/svg"
   xmlns:svg="http://www.w3.org/2000/svg"><sodipodi:namedview
     id="namedview7"
     pagecolor="#ffffff"
     bordercolor="#000000"
     borderopacity="0.25"
     inkscape:showpageshadow="2"
     inkscape:pageopacity="0.0"
     inkscape:pagecheckerboard="true"
     inkscape:deskcolor="#d1d1d1"
     inkscape:document-units="mm"
     showgrid="false"
     inkscape:zoom="0.70710678"
     inkscape:cx="760.13979"
     inkscape:cy="58.689863"
     inkscape:window-width="1920"
     inkscape:window-height="1017"
     inkscape:window-x="-8"
     inkscape:window-y="-8"
     inkscape:window-maximized="1"
     inkscape:current-layer="svg5" /><defs
     id="defs2" /><g
     aria-label="Deskflow"
     id="text361"
     style="font-size:4.89585px;-inkscape-font-specification:'sans-serif, Normal';fill:#010101;fill-opacity:0.301961;stroke-width:0.445777"
     transform="translate(1.1294609,0.21166668)"
     inkscape:label="text"><path
       d="M 6.7904589,4.5461359 V 1.0700823 h 1.2337542 q 0.5630228,0 0.9400032,0.2350008 0.3769805,0.2301049 0.5630228,0.6266688 0.1909382,0.391668 0.1909382,0.8714613 0,0.5287519 -0.2105216,0.9204199 Q 9.30203,4.1153011 8.9201537,4.3307185 8.5382774,4.5461359 8.0242131,4.5461359 Z M 9.1600503,2.8032132 q 0,-0.3671887 -0.1370838,-0.6462522 Q 8.8907786,1.8730017 8.6361944,1.7163345 8.386506,1.5547714 8.0242131,1.5547714 h -0.685419 v 2.5066753 h 0.685419 q 0.3671888,0 0.6168771,-0.1664589 Q 8.8956744,3.7285289 9.0278624,3.4445696 9.1600503,3.1606103 9.1600503,2.8032132 Z"
       style="font-family:Raleway;-inkscape-font-specification:'Raleway, @wght=600';font-variation-settings:'wght' 600;fill:#00003f;fill-opacity:1"
       id="path424"
       inkscape:label="d" /><path
       d="m 11.38766,4.5950944 q -0.298647,0 -0.543439,-0.1028128 -0.239897,-0.1077088 -0.416147,-0.2888552 -0.176251,-0.1860423 -0.274168,-0.4210431 -0.09302,-0.2398967 -0.09302,-0.5091684 0,-0.362293 0.166459,-0.6609398 0.166459,-0.3035427 0.465106,-0.4846892 0.298646,-0.1860423 0.700106,-0.1860423 0.40146,0 0.690315,0.1860423 0.293751,0.1811465 0.455314,0.4797933 0.161563,0.2986469 0.161563,0.6413564 0,0.05875 -0.0049,0.1126046 -0.0049,0.048958 -0.0098,0.083229 h -2.051362 q 0.01469,0.2252091 0.122397,0.3965639 0.112604,0.1664589 0.283959,0.2643759 0.171355,0.093021 0.367189,0.093021 0.215417,0 0.406355,-0.1077087 0.195834,-0.1077087 0.264376,-0.2839593 l 0.46021,0.132188 q -0.08323,0.1860423 -0.254584,0.3378136 -0.166459,0.1468755 -0.396564,0.2350009 -0.230105,0.083229 -0.499377,0.083229 z M 10.619012,3.0871725 h 1.547089 Q 12.151413,2.8668593 12.038808,2.7004004 11.9311,2.5290456 11.759745,2.4360245 11.593286,2.3381075 11.38766,2.3381075 q -0.20073,0 -0.372084,0.097917 -0.166459,0.093021 -0.274168,0.2643759 -0.107709,0.1664589 -0.122396,0.3867721 z"
       style="font-family:Raleway;-inkscape-font-specification:'Raleway, @wght=600';font-variation-settings:'wght' 600;fill:#00003f;fill-opacity:1"
       id="path426"
       inkscape:label="e" /><path
       d="m 14.050999,4.5950944 q -0.323126,0 -0.611981,-0.1028128 -0.288855,-0.1077088 -0.494481,-0.3182303 l 0.20073,-0.3622929 q 0.220313,0.195834 0.440626,0.2839593 0.22521,0.088125 0.445523,0.088125 0.225209,0 0.367189,-0.08323 0.141979,-0.088125 0.141979,-0.2545842 0,-0.1223962 -0.07344,-0.1811464 -0.07344,-0.05875 -0.215418,-0.1028129 -0.137084,-0.044063 -0.332918,-0.097917 -0.274167,-0.083229 -0.46021,-0.1713547 -0.186042,-0.093021 -0.279063,-0.2252092 -0.09302,-0.1321879 -0.09302,-0.3378136 0,-0.2496884 0.127292,-0.425939 0.127292,-0.1762506 0.352501,-0.2692717 0.230105,-0.093021 0.528752,-0.093021 0.279063,0 0.514064,0.088125 0.239897,0.08323 0.421043,0.2643759 L 14.800062,2.651441 Q 14.628708,2.4947738 14.447561,2.421336 14.271311,2.347898 14.065685,2.347898 q -0.117501,0 -0.225209,0.029375 -0.107709,0.024479 -0.181147,0.097917 -0.06854,0.068542 -0.06854,0.195834 0,0.1028128 0.05875,0.1664589 0.05875,0.063646 0.17625,0.1077087 0.117501,0.044063 0.288855,0.097917 0.298647,0.088125 0.509169,0.1762506 0.210521,0.083229 0.323126,0.2203133 0.1175,0.1321879 0.1175,0.3671887 0,0.3720846 -0.279063,0.5826062 -0.274168,0.2056257 -0.734378,0.2056257 z"
       style="font-family:Raleway;-inkscape-font-specification:'Raleway, @wght=600';font-variation-settings:'wght' 600;fill:#00003f;fill-opacity:1"
       id="path428"
       inkscape:label="s" /><path
       d="M 17.32632,4.5461359 16.503817,3.366236 16.082774,3.7676957 V 4.5461359 H 15.54423 V 0.97216527 h 0.538544 V 3.2242564 L 17.26757,1.9905021 h 0.57771 l -0.993858,1.0721912 1.047712,1.4834426 z"
       style="font-family:Raleway;-inkscape-font-specification:'Raleway, @wght=600';font-variation-settings:'wght' 600;fill:#00003f;fill-opacity:1"
       id="path430"
       inkscape:label="k" /><path
       d="m 20.434806,4.5804069 q -0.279064,0 -0.435731,-0.1468756 Q 19.842408,4.28176 19.842408,4.0271758 V 1.9219602 q 0,-0.1370838 -0.03917,-0.2594801 -0.03917,-0.1223962 -0.137084,-0.2007298 -0.09792,-0.078334 -0.283959,-0.078334 -0.166459,0 -0.269272,0.078334 -0.102812,0.078334 -0.151771,0.2154174 -0.04896,0.132188 -0.05385,0.3084386 v 0.063646 h 0.470001 V 2.4653996 H 18.907301 V 4.5461359 H 18.368757 V 2.4653996 H 18.026048 V 2.0492523 h 0.342709 V 1.9023768 q 0,-0.3084386 0.117501,-0.523856 0.1175,-0.2203132 0.342709,-0.3378136 0.225209,-0.11750043 0.543439,-0.11750043 0.514065,0 0.758857,0.24968833 0.249689,0.2447925 0.249689,0.6364606 v 1.9877151 q 0,0.1860423 0.05385,0.2447925 0.05875,0.05875 0.146875,0.05875 0.09792,0 0.190939,-0.024479 0.09792,-0.024479 0.146875,-0.044063 l 0.07833,0.4357307 q -0.05385,0.024479 -0.151772,0.048959 -0.09792,0.024479 -0.205625,0.044063 -0.107709,0.019583 -0.205626,0.019583 z"
       style="font-family:Raleway;-inkscape-font-specification:'Raleway, @wght=600';font-variation-settings:'wght' 600;fill:#00003f;fill-opacity:1"
       id="path432"
       inkscape:label="fl" /><path
       d="m 22.456788,4.5950944 q -0.303543,0 -0.54344,-0.1028128 Q 21.673452,4.3845728 21.497201,4.1985305 21.325846,4.0124882 21.232825,3.7774874 21.139804,3.5375908 21.139804,3.268319 q 0,-0.2692718 0.09302,-0.5091684 0.09302,-0.2398967 0.264376,-0.4210431 0.176251,-0.1860423 0.416147,-0.2888552 0.244793,-0.1077087 0.54344,-0.1077087 0.298646,0 0.538543,0.1077087 0.244793,0.1028129 0.416147,0.2888552 0.176251,0.1811464 0.269272,0.4210431 0.09302,0.2398966 0.09302,0.5091684 0,0.2692718 -0.09302,0.5091684 -0.09302,0.2350008 -0.269272,0.4210431 -0.171354,0.1860423 -0.416147,0.2937511 -0.239897,0.1028128 -0.538543,0.1028128 z M 21.693035,3.2732149 q 0,0.2447925 0.102813,0.4406265 0.102813,0.195834 0.274167,0.3084385 0.171355,0.1126046 0.386773,0.1126046 0.210521,0 0.381876,-0.1126046 0.17625,-0.1175004 0.279063,-0.3133344 0.102813,-0.2007298 0.102813,-0.4406265 0,-0.2447925 -0.102813,-0.4406265 -0.102813,-0.195834 -0.279063,-0.3084386 -0.171355,-0.1175004 -0.381876,-0.1175004 -0.215418,0 -0.386773,0.1175004 -0.171354,0.1175004 -0.274167,0.3133344 -0.102813,0.1909382 -0.102813,0.4406266 z"
       style="font-family:Raleway;-inkscape-font-specification:'Raleway, @wght=600';font-variation-settings:'wght' 600;fill:#00003f;fill-opacity:1"
       id="path434"
       inkscape:label="o" /><path
       d="m 27.356476,1.9856063 h 0.514064 l -1.077087,2.5605296 h -0.46021 l -0.46021,-1.1554206 -0.460209,1.1554206 h -0.46021 L 23.870631,1.9856063 h 0.514064 l 0.822503,2.0366736 0.362293,-0.9448991 -0.440627,-1.0868787 h 0.455314 l 0.288855,0.7980236 0.28396,-0.7980236 h 0.455314 l -0.435731,1.0868787 0.362293,0.9448991 z"
       style="font-family:Raleway;-inkscape-font-specification:'Raleway, @wght=600';font-variation-settings:'wght' 600;fill:#00003f;fill-opacity:1"
       id="path436"
       inkscape:label="w" /></g><g
     id="g312"
     transform="matrix(4.4775577e-4,0,0,4.1523862e-4,-0.58204638,0.06261135)"
     inkscape:label="icon"><path
       style="fill:#3366cc;fill-opacity:1;stroke-width:22.0314"
       d="m 10822.775,14277.69 c -725.441,-75.758 -1360.4107,-335.408 -2953.399,-1207.698 -1184.4329,-648.572 -1657.2077,-869.797 -2159.0787,-1010.295 -195.3193,-54.679 -239.4632,-58.606 -660.9423,-58.798 -412.4131,-0.187 -465.9968,4.307 -616.8795,51.442 -617.2354,192.932 -1111.1495,547.318 -1705.8871,1223.984 -372.355,423.649 -452.1256,475.865 -726.9905,475.865 -232.6962,0 -389.3132,-114.626 -538.1425,-393.859 -97.6499,-183.208 -136.2498,-354.745 -136.943,-608.569 -0.9871,-361.332 90.7554,-581.303 405.6158,-972.546 454.315,-564.53 1071.3806,-1096.759 1627.0063,-1403.32 574.0763,-316.742 1301.046,-474.5294 1911.1995,-414.8217 877.7976,85.8977 1479.4495,322.5197 3173.8588,1248.2357 1360.4629,743.271 1887.4222,972.691 2357.3612,1026.316 962.745,109.86 1619.788,-234.099 2426.041,-1270.024 265.988,-341.759 440.291,-523.347 538.01,-560.5 85.218,-32.404 353.332,-26.223 440.38,10.151 114.885,48.003 290.277,236.695 363.058,390.589 90.975,192.367 115.643,338.837 106.757,633.906 -7.394,245.557 -11.399,264.246 -91.148,425.591 -151.774,307.052 -552.228,834.715 -929.562,1224.851 -709.182,733.24 -1400.349,1092.826 -2291.735,1192.297 -223.305,24.917 -275.771,24.644 -538.58,-2.799 z"
       id="path3393"
       inkscape:label="wave 3" /><path
       style="fill:#33b2cc;fill-opacity:1;stroke-width:26.9658"
       d="M 10691.975,9232.2954 C 10023.904,9138.2267 9291.0238,8829.9773 7943.0848,8076.1112 6609.9067,7330.5005 6198.1922,7138.9358 5652.3423,7010.2615 c -243.5381,-57.4099 -347.9813,-65.1846 -698.6764,-52.0098 -350.6523,13.1729 -447.6471,28.2841 -648.4026,101.0161 -564.5998,204.5483 -1088.9878,604.082 -1609.3308,1226.1566 -346.6786,414.4566 -584.4059,525.2808 -885.347,412.7324 -192.604,-72.0329 -433.8052,-423.3421 -490.3134,-714.1418 -38.1396,-196.2741 -16.3788,-517.0343 47.5576,-701.0115 146.4281,-421.345 909.508,-1246.3029 1581.9071,-1710.1823 963.612,-664.7841 1984.7795,-839.4204 3092.0317,-528.7881 635.0677,178.1644 1074.5795,381.1158 2396.9103,1106.8098 963.7205,528.8895 1563.7032,820.226 1945.1742,944.5303 309.63,100.896 861.648,137.9622 1159.223,77.8413 588.657,-118.9268 1115.294,-522.1996 1702.251,-1303.4965 310.762,-413.655 424.656,-516.4984 632.476,-571.1126 312.793,-82.2063 660.875,196.9193 776.17,622.3954 40.112,148.0341 49.106,237.616 42.717,425.5773 -11.234,330.4785 -72.528,487.867 -338.44,868.9363 -740.488,1061.1785 -1618.249,1744.1642 -2516.836,1958.3492 -314.615,74.9868 -841.585,101.7751 -1149.443,58.4277 z"
       id="path1767"
       inkscape:label="wave 2" /><path
       style="fill:#33cc99;fill-opacity:1;stroke-width:26.9658"
       d="M 10576.744,4172.4544 C 9875.4106,4054.5311 9254.561,3795.6536 8047.1318,3117.6748 6298.7948,2135.9727 5901.1838,1973.7358 5169.1286,1943.3652 c -309.4699,-12.839 -457.2545,-4.6405 -640.2217,35.5164 -623.6823,136.8833 -1265.1525,579.7083 -1843.7689,1272.8049 -261.4251,313.1489 -336.0185,374.0949 -523.4853,427.7108 -333.9533,95.5119 -631.6749,-125.6455 -797.5,-592.4091 -65.1417,-183.3604 -70.0111,-219.3096 -60.5107,-446.7291 15.0698,-360.7299 102.7469,-573.6147 372.566,-904.6099 1271.6034,-1559.91423 2646.1446,-2145.742 4181.6081,-1782.19574 680.9761,161.23227 1320.8731,447.96799 2599.9925,1165.04794 1490.1626,835.3921 2027.4634,1046.8526 2657.2604,1045.7931 824.736,-1.3855 1475.964,-418.6346 2184.35,-1399.53052 316.552,-438.32663 413.046,-512.11801 670.274,-512.57528 154.752,-0.27638 193.077,12.59982 339.34,113.99621 259.074,179.60222 391.048,479.99014 391.048,890.06929 0,346.9967 -62.66,514.2152 -341.533,911.4521 -1108.285,1578.6765 -2362.287,2243.4278 -3781.804,2004.7481 z"
       id="path970"
       inkscape:label="wave 1" /></g></svg>
