<?xml version="1.0" encoding="UTF-8"?>
<svg height="128px" viewBox="0 0 128 128" width="128px" xmlns="http://www.w3.org/2000/svg" xmlns:xlink="http://www.w3.org/1999/xlink">
    <linearGradient id="a" gradientTransform="matrix(0.215563 0 0 0.328947 -7.09844 263.826965)" gradientUnits="userSpaceOnUse" x1="88.595886" x2="571.057495" y1="-449.394012" y2="-449.394012">
        <stop offset="0" stop-color="#af4eff"/>
        <stop offset="0.0384615" stop-color="#d38cff"/>
        <stop offset="0.0768555" stop-color="#971aff"/>
        <stop offset="0.923077" stop-color="#900aff"/>
        <stop offset="0.961535" stop-color="#d38cff"/>
        <stop offset="1" stop-color="#971aff"/>
    </linearGradient>
    <linearGradient id="b" gradientUnits="userSpaceOnUse">
        <stop offset="0" stop-color="#dea1ff"/>
        <stop offset="0.5" stop-color="#f2ccff"/>
        <stop offset="1" stop-color="#e5b3ff"/>
    </linearGradient>
    <linearGradient id="c" x1="46" x2="58" xlink:href="#b" y1="94" y2="94"/>
    <linearGradient id="d" gradientTransform="matrix(1 0 0 0.333333 0 19.333328)" x1="46" x2="58" xlink:href="#b" y1="218" y2="218"/>
    <linearGradient id="e" gradientUnits="userSpaceOnUse" x1="96" x2="108" y1="94" y2="94">
        <stop offset="0" stop-color="#af4eff"/>
        <stop offset="0.125868" stop-color="#c466ff"/>
        <stop offset="0.25" stop-color="#961aff"/>
        <stop offset="0.75" stop-color="#961aff"/>
        <stop offset="0.871846" stop-color="#c466ff"/>
        <stop offset="1" stop-color="#af4eff"/>
    </linearGradient>
    <linearGradient id="f" gradientTransform="matrix(1 0 0 0.333333 50 19.333328)" gradientUnits="userSpaceOnUse" x1="46" x2="58" y1="218" y2="218">
        <stop offset="0" stop-color="#af4eff"/>
        <stop offset="0.125868" stop-color="#c466ff"/>
        <stop offset="0.25" stop-color="#9f2bff"/>
        <stop offset="0.75" stop-color="#9f2bff"/>
        <stop offset="0.871846" stop-color="#c466ff"/>
        <stop offset="1" stop-color="#af4eff"/>
    </linearGradient>
    <linearGradient id="g" gradientTransform="matrix(-0.75 0 0 0.416667 100.5 8.3333)" gradientUnits="userSpaceOnUse" x1="45.999996" x2="81.999992" y1="208" y2="208">
        <stop offset="0" stop-color="#af4eff"/>
        <stop offset="0.037037" stop-color="#d38cff"/>
        <stop offset="0.0740741" stop-color="#981aff"/>
        <stop offset="0.925926" stop-color="#981aff"/>
        <stop offset="0.962963" stop-color="#d38cff"/>
        <stop offset="1" stop-color="#af4eff"/>
    </linearGradient>
    <linearGradient id="h" gradientUnits="userSpaceOnUse">
        <stop offset="0" stop-color="#b65fff"/>
        <stop offset="1" stop-color="#aa42ff"/>
    </linearGradient>
    <linearGradient id="i" gradientTransform="matrix(-0.75 0 0 0.75 99.998543 -60.000015)" x1="52" x2="55.999996" xlink:href="#h" y1="204" y2="204"/>
    <linearGradient id="j" x1="44.00144" x2="47.001437" xlink:href="#h" y1="92.999985" y2="92.999985"/>
    <path d="m 20 40 h 88 c 4.417969 0 8 3.582031 8 8 v 60 c 0 4.417969 -3.582031 8 -8 8 h -88 c -4.417969 0 -8 -3.582031 -8 -8 v -60 c 0 -4.417969 3.582031 -8 8 -8 z m 0 0" fill="url(#a)"/>
    <path d="m 20.308594 12 h 87.382812 c 4.589844 0 8.308594 3.582031 8.308594 8 v 80 c 0 4.417969 -3.71875 8 -8.308594 8 h -87.382812 c -4.589844 0 -8.308594 -3.582031 -8.308594 -8 v -80 c 0 -4.417969 3.71875 -8 8.308594 -8 z m 0 0" fill="#ce7fff"/>
    <path d="m 24 44 h 8 c 2.210938 0 4 1.789062 4 4 v 4 c 0 2.210938 -1.789062 4 -4 4 h -8 c -2.210938 0 -4 -1.789062 -4 -4 v -4 c 0 -2.210938 1.789062 -4 4 -4 z m 0 0" fill="#b45cff"/>
    <path d="m 48 44 h 8 c 2.210938 0 4 1.789062 4 4 v 4 c 0 2.210938 -1.789062 4 -4 4 h -8 c -2.210938 0 -4 -1.789062 -4 -4 v -4 c 0 -2.210938 1.789062 -4 4 -4 z m 0 0" fill="#e1a9ff"/>
    <path d="m 72 44 h 8 c 2.210938 0 4 1.789062 4 4 v 4 c 0 2.210938 -1.789062 4 -4 4 h -8 c -2.210938 0 -4 -1.789062 -4 -4 v -4 c 0 -2.210938 1.789062 -4 4 -4 z m 0 0" fill="#b45cff"/>
    <path d="m 96 44 h 8 c 2.210938 0 4 1.789062 4 4 v 4 c 0 2.210938 -1.789062 4 -4 4 h -8 c -2.210938 0 -4 -1.789062 -4 -4 v -4 c 0 -2.210938 1.789062 -4 4 -4 z m 0 0" fill="#b45cff"/>
    <path d="m 24 64 h 8 c 2.210938 0 4 1.789062 4 4 v 4 c 0 2.210938 -1.789062 4 -4 4 h -8 c -2.210938 0 -4 -1.789062 -4 -4 v -4 c 0 -2.210938 1.789062 -4 4 -4 z m 0 0" fill="#b45cff"/>
    <path d="m 48 64 h 8 c 2.210938 0 4 1.789062 4 4 v 4 c 0 2.210938 -1.789062 4 -4 4 h -8 c -2.210938 0 -4 -1.789062 -4 -4 v -4 c 0 -2.210938 1.789062 -4 4 -4 z m 0 0" fill="#e1a9ff"/>
    <path d="m 72 64 h 8 c 2.210938 0 4 1.789062 4 4 v 4 c 0 2.210938 -1.789062 4 -4 4 h -8 c -2.210938 0 -4 -1.789062 -4 -4 v -4 c 0 -2.210938 1.789062 -4 4 -4 z m 0 0" fill="#b45cff"/>
    <path d="m 96 64 h 8 c 2.210938 0 4 1.789062 4 4 v 4 c 0 2.210938 -1.789062 4 -4 4 h -8 c -2.210938 0 -4 -1.789062 -4 -4 v -4 c 0 -2.210938 1.789062 -4 4 -4 z m 0 0" fill="#e1a9ff"/>
    <path d="m 24 40 h 8 c 2.210938 0 4 1.789062 4 4 v 4 c 0 2.210938 -1.789062 4 -4 4 h -8 c -2.210938 0 -4 -1.789062 -4 -4 v -4 c 0 -2.210938 1.789062 -4 4 -4 z m 0 0" fill="#edccff"/>
    <path d="m 48 40 h 8 c 2.210938 0 4 1.789062 4 4 v 4 c 0 2.210938 -1.789062 4 -4 4 h -8 c -2.210938 0 -4 -1.789062 -4 -4 v -4 c 0 -2.210938 1.789062 -4 4 -4 z m 0 0" fill="#ffffff"/>
    <path d="m 72 40 h 8 c 2.210938 0 4 1.789062 4 4 v 4 c 0 2.210938 -1.789062 4 -4 4 h -8 c -2.210938 0 -4 -1.789062 -4 -4 v -4 c 0 -2.210938 1.789062 -4 4 -4 z m 0 0" fill="#edccff"/>
    <path d="m 96 40 h 8 c 2.210938 0 4 1.789062 4 4 v 4 c 0 2.210938 -1.789062 4 -4 4 h -8 c -2.210938 0 -4 -1.789062 -4 -4 v -4 c 0 -2.210938 1.789062 -4 4 -4 z m 0 0" fill="#edccff"/>
    <path d="m 24 60 h 8 c 2.210938 0 4 1.789062 4 4 v 4 c 0 2.210938 -1.789062 4 -4 4 h -8 c -2.210938 0 -4 -1.789062 -4 -4 v -4 c 0 -2.210938 1.789062 -4 4 -4 z m 0 0" fill="#edccff"/>
    <path d="m 48 60 h 8 c 2.210938 0 4 1.789062 4 4 v 4 c 0 2.210938 -1.789062 4 -4 4 h -8 c -2.210938 0 -4 -1.789062 -4 -4 v -4 c 0 -2.210938 1.789062 -4 4 -4 z m 0 0" fill="#ffffff"/>
    <path d="m 72 60 h 8 c 2.210938 0 4 1.789062 4 4 v 4 c 0 2.210938 -1.789062 4 -4 4 h -8 c -2.210938 0 -4 -1.789062 -4 -4 v -4 c 0 -2.210938 1.789062 -4 4 -4 z m 0 0" fill="#edccff"/>
    <path d="m 96 60 h 8 c 2.210938 0 4 1.789062 4 4 v 4 c 0 2.210938 -1.789062 4 -4 4 h -8 c -2.210938 0 -4 -1.789062 -4 -4 v -4 c 0 -2.210938 1.789062 -4 4 -4 z m 0 0" fill="#ffffff"/>
    <path d="m 24 24 h 8 c 2.210938 0 4 1.789062 4 4 v 4 c 0 2.210938 -1.789062 4 -4 4 h -8 c -2.210938 0 -4 -1.789062 -4 -4 v -4 c 0 -2.210938 1.789062 -4 4 -4 z m 0 0" fill="#e1a9ff"/>
    <path d="m 48 24 h 8 c 2.210938 0 4 1.789062 4 4 v 4 c 0 2.210938 -1.789062 4 -4 4 h -8 c -2.210938 0 -4 -1.789062 -4 -4 v -4 c 0 -2.210938 1.789062 -4 4 -4 z m 0 0" fill="#b45cff"/>
    <path d="m 72 24 h 8 c 2.210938 0 4 1.789062 4 4 v 4 c 0 2.210938 -1.789062 4 -4 4 h -8 c -2.210938 0 -4 -1.789062 -4 -4 v -4 c 0 -2.210938 1.789062 -4 4 -4 z m 0 0" fill="#b45cff"/>
    <path d="m 96 24 h 8 c 2.210938 0 4 1.789062 4 4 v 4 c 0 2.210938 -1.789062 4 -4 4 h -8 c -2.210938 0 -4 -1.789062 -4 -4 v -4 c 0 -2.210938 1.789062 -4 4 -4 z m 0 0" fill="#b45cff"/>
    <path d="m 24 20 h 8 c 2.210938 0 4 1.789062 4 4 v 4 c 0 2.210938 -1.789062 4 -4 4 h -8 c -2.210938 0 -4 -1.789062 -4 -4 v -4 c 0 -2.210938 1.789062 -4 4 -4 z m 0 0" fill="#ffffff"/>
    <g fill="#edccff">
        <path d="m 48 20 h 8 c 2.210938 0 4 1.789062 4 4 v 4 c 0 2.210938 -1.789062 4 -4 4 h -8 c -2.210938 0 -4 -1.789062 -4 -4 v -4 c 0 -2.210938 1.789062 -4 4 -4 z m 0 0"/>
        <path d="m 72 20 h 8 c 2.210938 0 4 1.789062 4 4 v 4 c 0 2.210938 -1.789062 4 -4 4 h -8 c -2.210938 0 -4 -1.789062 -4 -4 v -4 c 0 -2.210938 1.789062 -4 4 -4 z m 0 0"/>
        <path d="m 96 20 h 8 c 2.210938 0 4 1.789062 4 4 v 4 c 0 2.210938 -1.789062 4 -4 4 h -8 c -2.210938 0 -4 -1.789062 -4 -4 v -4 c 0 -2.210938 1.789062 -4 4 -4 z m 0 0"/>
        <path d="m 86 92 h -62 c -1.105469 0 -2 0.894531 -2 2 s 0.894531 2 2 2 h 62 c 1.105469 0 2 -0.894531 2 -2 s -0.894531 -2 -2 -2 z m 0 0"/>
    </g>
    <path d="m 52 88 c 3.3125 0 6 2.6875 6 6 s -2.6875 6 -6 6 s -6 -2.6875 -6 -6 s 2.6875 -6 6 -6 z m 0 0" fill="url(#c)"/>
    <path d="m 46 90 h 12 v 4 h -12 z m 0 0" fill="url(#d)"/>
    <path d="m 52 84 c 3.3125 0 6 2.6875 6 6 s -2.6875 6 -6 6 s -6 -2.6875 -6 -6 s 2.6875 -6 6 -6 z m 0 0" fill="#ffffff"/>
    <path d="m 102 88 c 3.3125 0 6 2.6875 6 6 s -2.6875 6 -6 6 s -6 -2.6875 -6 -6 s 2.6875 -6 6 -6 z m 0 0" fill="url(#e)"/>
    <path d="m 96 90 h 12 v 4 h -12 z m 0 0" fill="url(#f)"/>
    <path d="m 102 84 c 3.3125 0 6 2.6875 6 6 s -2.6875 6 -6 6 s -6 -2.6875 -6 -6 s 2.6875 -6 6 -6 z m 0 0" fill="#b65fff"/>
    <path d="m 64 90 h -23 c -1.105469 0 -2 0.894531 -2 2 v 6 c 0 1.105469 0.894531 2 2 2 h 23 c 1.105469 0 2 -0.894531 2 -2 v -6 c 0 -1.105469 -0.894531 -2 -2 -2 z m 0 0" fill="url(#g)"/>
    <path d="m 64 88 h -23 c -1.105469 0 -2 0.640625 -2 1.429688 v 7.140624 c 0 0.789063 0.894531 1.429688 2 1.429688 h 23 c 1.105469 0 2 -0.640625 2 -1.429688 v -7.140624 c 0 -0.789063 -0.894531 -1.429688 -2 -1.429688 z m 0 0" fill="#b65fff"/>
    <path d="m 58 85 c 0 1.65625 1.34375 3 3 3 v 10 h -5.25 v -13 z m 0 0" fill="url(#i)"/>
    <path d="m 47 85 c 0 1.65625 -1.34375 3 -3 3 v 10 h 5.25 v -13 z m 0 0" fill="url(#j)"/>
    <path d="m 58 95 c 0 1.65625 1.34375 3 3 3 v 1.5 h -17 v -1.5 c 1.65625 0 3 -1.34375 3 -3 z m 0 0" fill="#981aff"/>
    <path d="m 58 83 h -11 v 12 h 11 z m 0 0" fill="#c075ff"/>
    <path d="m 54 83 h -3 v 12 h 3 z m 0 0" fill="#d6a4ff"/>
</svg>
